Coordinates
version=1
nRows=13
nColumns=40
inDegrees=yes

Units are S.I. units (second, meters, Newtons, ...)
Angles are in degrees.

endheader
time	pelvis_tilt	pelvis_list	pelvis_rotation	pelvis_tx	pelvis_ty	pelvis_tz	hip_flexion_r	hip_adduction_r	hip_rotation_r	knee_angle_r	knee_angle_r_beta	ankle_angle_r	subtalar_angle_r	mtp_angle_r	hip_flexion_l	hip_adduction_l	hip_rotation_l	knee_angle_l	knee_angle_l_beta	ankle_angle_l	subtalar_angle_l	mtp_angle_l	lumbar_extension	lumbar_bending	lumbar_rotation	arm_flex_r	arm_add_r	arm_rot_r	elbow_flex_r	pro_sup_r	wrist_flex_r	wrist_dev_r	arm_flex_l	arm_add_l	arm_rot_l	elbow_flex_l	pro_sup_l	wrist_flex_l	wrist_dev_l
     23.98000000	     -4.65130106	     -5.45650126	      4.72578505	      0.77874529	      0.92770906	      0.43549850	     11.78708986	      3.59360983	    -16.27501303	     15.31718485	     15.31718485	     10.39454845	     -3.61793882	     -4.21548780	     34.91760020	    -12.78260724	      1.38697255	     55.03983635	     55.03983635	     10.09194247	    -19.32495070	     19.31643194	    -12.48810776	      6.36841995	      2.80707899	     20.92784167	    -19.15515238	      0.69514454	     60.97222346	     45.32189066	      0.00000000	      0.00000000	      2.00172804	    -16.53388914	    -16.77171187	     40.12657057	     45.76174044	      0.00000000	      0.00000000
     23.98164286	     -4.62467490	     -5.47627432	      4.77075180	      0.77863750	      0.92778906	      0.43556441	     11.64922936	      3.64115986	    -16.31005325	     15.17948267	     15.17948267	     10.46550722	     -3.52171215	     -4.01527927	     34.88406270	    -12.78954554	      1.30669617	     54.62606687	     54.62606687	      9.78741138	    -19.33414187	     18.25565546	    -12.56493650	      6.38597649	      2.79908324	     20.91503729	    -19.13041471	      0.64742112	     61.37188249	     45.30799871	      0.00000000	      0.00000000	      1.75703896	    -16.49718241	    -16.65594542	     40.48587359	     45.75533286	      0.00000000	      0.00000000
     23.98328571	     -4.68517329	     -5.44454784	      4.81073914	      0.77837140	      0.92771202	      0.43556623	     11.71584824	      3.59605736	    -16.29663465	     15.23275445	     15.23275445	     10.40766346	     -3.66163101	     -4.28522648	     35.04737691	    -12.65844927	      1.33664343	     54.40238925	     54.40238925	     10.23644483	    -19.32115461	     19.43812440	    -12.51135474	      6.33671693	      2.73534417	     21.11720597	    -19.06611853	      0.80448496	     61.20572590	     45.30944266	      0.00000000	      0.00000000	      1.98895701	    -16.30095730	    -17.31798005	     39.65413133	     45.86685849	      0.00000000	      0.00000000
     23.98492857	     -4.69642241	     -5.43733054	      4.85431615	      0.77818875	      0.92772148	      0.43559907	     11.66983510	      3.59532347	    -16.32697277	     15.18432857	     15.18432857	     10.40655870	     -3.65546304	     -4.34276978	     35.10567205	    -12.59703613	      1.30725543	     54.07982642	     54.07982642	     10.30220917	    -19.31897793	     19.48208927	    -12.53130966	      6.31523005	      2.71321377	     21.17173822	    -19.04975728	      0.83667838	     61.38366874	     45.30466130	      0.00000000	      0.00000000	      1.95963622	    -16.18484281	    -17.60342154	     39.50836021	     45.93632781	      0.00000000	      0.00000000
     23.98657143	     -4.66821855	     -5.45379155	      4.90081719	      0.77803381	      0.92780417	      0.43565830	     11.54486041	      3.63726897	    -16.36109634	     15.07221570	     15.07221570	     10.48260284	     -3.58269266	     -4.10941055	     35.07477966	    -12.59838474	      1.22444516	     53.66064450	     53.66064450	      9.98047810	    -19.32829536	     18.38617281	    -12.61343504	      6.31498788	      2.72978667	     21.16247436	    -19.03593043	      0.77379563	     61.73937368	     45.29378879	      0.00000000	      0.00000000	      1.73051342	    -16.17090572	    -17.33350288	     39.87286910	     45.90391819	      0.00000000	      0.00000000
     23.98821429	     -4.66354646	     -5.46824934	      4.94588518	      0.77789381	      0.92786209	      0.43571513	     11.44121537	      3.67780038	    -16.38154742	     14.94932494	     14.94932494	     10.51119591	     -3.54473096	     -3.96564741	     35.09189568	    -12.57775401	      1.17252318	     53.28440245	     53.28440245	      9.85782381	    -19.32971539	     17.88783716	    -12.65143552	      6.31937079	      2.70664598	     21.20997366	    -18.99302910	      0.75638748	     61.93081121	     45.28716712	      0.00000000	      0.00000000	      1.59581208	    -16.15282187	    -17.15893314	     39.87656937	     45.88291351	      0.00000000	      0.00000000
     23.98985714	     -4.74809200	     -5.42291148	      4.98597222	      0.77763528	      0.92772964	      0.43569319	     11.56511922	      3.60364907	    -16.37143963	     15.07322738	     15.07322738	     10.46243933	     -3.71793101	     -4.29321428	     35.28596800	    -12.41300427	      1.22260828	     53.07217070	     53.07217070	     10.41576425	    -19.31412960	     19.35749043	    -12.55971305	      6.26598464	      2.69807019	     21.41211851	    -18.95866600	      0.89931014	     61.64914916	     45.29416083	      0.00000000	      0.00000000	      1.94076654	    -16.01963772	    -17.49899779	     38.80904997	     45.94847142	      0.00000000	      0.00000000
     23.99150000	     -4.76277032	     -5.41160277	      5.03040859	      0.77744157	      0.92773177	      0.43571116	     11.52121585	      3.59684426	    -16.41013857	     15.02565335	     15.02565335	     10.45081543	     -3.71274043	     -4.39403819	     35.34897806	    -12.34277806	      1.19366571	     52.74634768	     52.74634768	     10.49936244	    -19.31013316	     19.46587710	    -12.57467370	      6.24056694	      2.71110479	     21.42677412	    -18.96147507	      0.89167572	     61.87748966	     45.28987920	      0.00000000	      0.00000000	      1.93824879	    -15.91899866	    -17.65412276	     38.65052987	     45.99751815	      0.00000000	      0.00000000
     23.99314286	     -4.73738504	     -5.42670727	      5.08059481	      0.77730489	      0.92780145	      0.43574431	     11.39478406	      3.63672967	    -16.44348728	     14.90908129	     14.90908129	     10.52536116	     -3.63862952	     -4.17719661	     35.31797929	    -12.33266419	      1.11865244	     52.31864982	     52.31864982	     10.19394568	    -19.31802067	     18.41404468	    -12.64677818	      6.24851756	      2.72163229	     21.41611082	    -18.95887006	      0.82155717	     62.21443727	     45.28035924	      0.00000000	      0.00000000	      1.70746346	    -15.91103082	    -17.38337628	     38.99173018	     45.96170623	      0.00000000	      0.00000000
     23.99478571	     -4.73169786	     -5.43600886	      5.12787127	      0.77715834	      0.92786550	      0.43579382	     11.28790644	      3.67260701	    -16.47274594	     14.78512573	     14.78512573	     10.55832628	     -3.60032333	     -4.02950240	     35.32578630	    -12.30248447	      1.06771050	     51.92409636	     51.92409636	     10.03137114	    -19.32124182	     17.83457529	    -12.69391314	      6.24380805	      2.71760556	     21.46031676	    -18.89774428	      0.80011801	     62.43250458	     45.27328008	      0.00000000	      0.00000000	      1.58198613	    -15.89320887	    -17.17060989	     39.06798811	     45.93289327	      0.00000000	      0.00000000
     23.99642857	     -4.81039144	     -5.39289627	      5.16626752	      0.77688453	      0.92773606	      0.43578273	     11.39038623	      3.60658680	    -16.46700058	     14.87631946	     14.87631946	     10.48144562	     -3.75070569	     -4.42294113	     35.52254277	    -12.14295811	      1.11672754	     51.72647139	     51.72647139	     10.60488175	    -19.30845379	     19.39156660	    -12.60051565	      6.18770721	      2.74151889	     21.64891528	    -18.85196331	      0.94031975	     62.17015825	     45.28054445	      0.00000000	      0.00000000	      1.96236154	    -15.75043526	    -17.51393005	     37.95630440	     45.99930303	      0.00000000	      0.00000000
     23.99807143	     -4.79182090	     -5.40559851	      5.21489513	      0.77676986	      0.92781049	      0.43579955	     11.27498289	      3.63631741	    -16.51588630	     14.77045877	     14.77045877	     10.54606798	     -3.66626074	     -4.21136215	     35.48542942	    -12.12494088	      1.04811904	     51.27864943	     51.27864943	     10.28884237	    -19.31035075	     18.33453138	    -12.66606444	      6.18898536	      2.73397771	     21.60303685	    -18.88021464	      0.85204851	     62.54297158	     45.27059008	      0.00000000	      0.00000000	      1.70147899	    -15.75001093	    -17.24982616	     38.34965985	     45.96349372	      0.00000000	      0.00000000
     23.99971429	     -4.77601564	     -5.42377977	      5.27628807	      0.77662680	      0.92784606	      0.43579125	     11.17273631	      3.67410905	    -16.53288741	     14.67698135	     14.67698135	     10.60758925	     -3.63234782	     -4.10737513	     35.48183271	    -12.08259151	      1.03073813	     50.88218061	     50.88218061	     10.17910150	    -19.31277914	     17.82405755	    -12.70028975	      6.22001630	      2.70201848	     21.65145343	    -18.88357659	      0.80884057	     62.75681747	     45.26487478	      0.00000000	      0.00000000	      1.56706331	    -15.73413322	    -17.06982726	     38.39582645	     45.93876165	      0.00000000	      0.00000000
